Coordinates
version=1
nRows=11
nColumns=40
inDegrees=yes

Units are S.I. units (second, meters, Newtons, ...)
If the header above contains a line with 'inDegrees', this indicates whether rotational values are in degrees (yes) or radians (no).

endheader
time	pelvis_tilt	pelvis_list	pelvis_rotation	pelvis_tx	pelvis_ty	pelvis_tz	hip_flexion_r	hip_adduction_r	hip_rotation_r	knee_angle_r	knee_angle_r_beta	ankle_angle_r	subtalar_angle_r	mtp_angle_r	hip_flexion_l	hip_adduction_l	hip_rotation_l	knee_angle_l	knee_angle_l_beta	ankle_angle_l	subtalar_angle_l	mtp_angle_l	lumbar_extension	lumbar_bending	lumbar_rotation	arm_flex_r	arm_add_r	arm_rot_r	elbow_flex_r	pro_sup_r	wrist_flex_r	wrist_dev_r	arm_flex_l	arm_add_l	arm_rot_l	elbow_flex_l	pro_sup_l	wrist_flex_l	wrist_dev_l
      5.24500000	    -42.88740611	     -7.79293923	     15.57705799	      0.03155016	      0.66347949	     -1.21749982	     92.62553217	    -47.83876967	     -9.77436458	     71.26060783	      1.24373223	      7.98414704	    -19.73136229	      0.00000000	    101.55987331	    -14.72466112	     -1.35886726	     65.34875738	      1.14055098	      4.94358170	     -2.73080701	      0.00000000	      0.00000000	      0.00000000	      0.00000000	     44.99992433	    -14.99999999	     44.99992433	     75.00017585	     45.00000026	      0.00000000	      0.00000000	     44.99992433	    -14.99999999	     44.99992433	     75.00017585	     45.00000026	      0.00000000	      0.00000000
      5.25000000	    -42.85685913	     -7.80430132	     15.56619591	      0.03197531	      0.66384322	     -1.21744262	     92.47766378	    -47.81752706	     -9.88124057	     71.21538029	      1.24294286	      7.98406559	    -19.73345943	      0.00000000	    101.48203634	    -14.76286122	     -1.35736777	     65.31564542	      1.13997307	      4.97515534	     -2.67051704	      0.00000000	      0.00000000	      0.00000000	      0.00000000	     44.99992433	    -14.99999999	     44.99992433	     75.00017585	     45.00000026	      0.00000000	      0.00000000	     44.99992433	    -14.99999999	     44.99992433	     75.00017585	     45.00000026	      0.00000000	      0.00000000
      5.25500000	    -42.82948313	     -7.78811921	     15.56689044	      0.03235268	      0.66416214	     -1.21740703	     92.37522395	    -47.81289769	     -9.92687718	     71.17994905	      1.24232447	      8.00760082	    -19.70994132	      0.00000000	    101.39584979	    -14.78842137	     -1.38359795	     65.28549409	      1.13944683	      4.99246064	     -2.62508741	      0.00000000	      0.00000000	      0.00000000	      0.00000000	     44.99992433	    -14.99999999	     44.99992433	     75.00017585	     45.00000026	      0.00000000	      0.00000000	     44.99992433	    -14.99999999	     44.99992433	     75.00017585	     45.00000026	      0.00000000	      0.00000000
      5.26000000	    -42.76660844	     -7.81700349	     15.58394246	      0.03278987	      0.66465745	     -1.21743074	     92.14303603	    -47.81080050	    -10.07702168	     71.10992065	      1.24110225	      8.01310212	    -19.69731916	      0.00000000	    101.28399532	    -14.80353470	     -1.37874368	     65.23299402	      1.13853053	      5.04408057	     -2.53569891	      0.00000000	      0.00000000	      0.00000000	      0.00000000	     44.99992433	    -14.99999999	     44.99992433	     75.00017585	     45.00000026	      0.00000000	      0.00000000	     44.99992433	    -14.99999999	     44.99992433	     75.00017585	     45.00000026	      0.00000000	      0.00000000
      5.26500000	    -42.68242657	     -7.84524569	     15.58152496	      0.03322771	      0.66510790	     -1.21737017	     91.90451885	    -47.79368612	    -10.24938366	     71.06247255	      1.24027412	      7.99692259	    -19.74668490	      0.00000000	    101.17198735	    -14.85537261	     -1.36971855	     65.20679413	      1.13807325	      5.09336817	     -2.42564167	      0.00000000	      0.00000000	      0.00000000	      0.00000000	     44.99992433	    -14.99999999	     44.99992433	     75.00017585	     45.00000026	      0.00000000	      0.00000000	     44.99992433	    -14.99999999	     44.99992433	     75.00017585	     45.00000026	      0.00000000	      0.00000000
      5.27000000	    -42.65649230	     -7.85532315	     15.60649955	      0.03356764	      0.66542576	     -1.21740925	     91.78094637	    -47.81630397	    -10.32608950	     71.03184532	      1.23973957	      8.04302486	    -19.66844154	      0.00000000	    101.10295139	    -14.84889051	     -1.37775641	     65.17114059	      1.13745098	      5.08282943	     -2.39607206	      0.00000000	      0.00000000	      0.00000000	      0.00000000	     44.99992433	    -14.99999999	     44.99992433	     75.00017585	     45.00000026	      0.00000000	      0.00000000	     44.99992433	    -14.99999999	     44.99992433	     75.00017585	     45.00000026	      0.00000000	      0.00000000
      5.27500000	    -42.55042882	     -7.84917608	     15.61590436	      0.03401676	      0.66596879	     -1.21734284	     91.53490101	    -47.80509127	    -10.45108588	     70.97396347	      1.23872935	      8.02902190	    -19.69825654	      0.00000000	    100.93039730	    -14.89337780	     -1.39361384	     65.11845629	      1.13653147	      5.18341677	     -2.23603165	      0.00000000	      0.00000000	      0.00000000	      0.00000000	     44.99992433	    -14.99999999	     44.99992433	     75.00017585	     45.00000026	      0.00000000	      0.00000000	     44.99992433	    -14.99999999	     44.99992433	     75.00017585	     45.00000026	      0.00000000	      0.00000000
      5.28000000	    -42.65776908	     -7.82898176	     15.59856652	      0.03417371	      0.66593946	     -1.21731673	     91.66803192	    -47.79030752	    -10.36620935	     70.96798457	      1.23862499	      8.09816697	    -19.61260991	      0.00000000	    100.99431542	    -14.90643763	     -1.45229344	     65.09913367	      1.13619422	      5.05645694	     -2.34914562	      0.00000000	      0.00000000	      0.00000000	      0.00000000	     44.99992433	    -14.99999999	     44.99992433	     75.00017585	     45.00000026	      0.00000000	      0.00000000	     44.99992433	    -14.99999999	     44.99992433	     75.00017585	     45.00000026	      0.00000000	      0.00000000
      5.28500000	    -42.61141587	     -7.76666403	     15.61035368	      0.03448867	      0.66635560	     -1.21721335	     91.59141509	    -47.78520285	    -10.35220443	     70.92939536	      1.23795149	      8.05884318	    -19.62548642	      0.00000000	    100.85047026	    -14.93747298	     -1.53363186	     65.04629511	      1.13527202	      5.12422881	     -2.23138416	      0.00000000	      0.00000000	      0.00000000	      0.00000000	     44.99992433	    -14.99999999	     44.99992433	     75.00017585	     45.00000026	      0.00000000	      0.00000000	     44.99992433	    -14.99999999	     44.99992433	     75.00017585	     45.00000026	      0.00000000	      0.00000000
      5.29000000	    -42.55835115	     -7.73064112	     15.62787734	      0.03484431	      0.66672791	     -1.21716777	     91.47427422	    -47.80191120	    -10.38859539	     70.89656488	      1.23737849	      8.09926161	    -19.58052505	      0.00000000	    100.72644276	    -14.96312744	     -1.60255047	     65.00110849	      1.13448336	      5.11077418	     -2.20706270	      0.00000000	      0.00000000	      0.00000000	      0.00000000	     44.99992433	    -14.99999999	     44.99992433	     75.00017585	     45.00000026	      0.00000000	      0.00000000	     44.99992433	    -14.99999999	     44.99992433	     75.00017585	     45.00000026	      0.00000000	      0.00000000
      5.29500000	    -42.52141746	     -7.73390597	     15.61607194	      0.03519750	      0.66707538	     -1.21712510	     91.33250355	    -47.77690106	    -10.47176042	     70.84661556	      1.23650671	      8.12248159	    -19.56679818	      0.00000000	    100.64585310	    -15.01016246	     -1.61907933	     64.97554256	      1.13403715	      5.14395464	     -2.12319922	      0.00000000	      0.00000000	      0.00000000	      0.00000000	     44.99992434	    -14.99999999	     44.99992434	     75.00017585	     45.00000026	      0.00000000	      0.00000000	     44.99992434	    -14.99999999	     44.99992434	     75.00017585	     45.00000026	      0.00000000	      0.00000000
